<svg width="284" height="282" viewBox="0 0 284 282" fill="none" xmlns="http://www.w3.org/2000/svg">
<mask id="path-1-outside-1_320_14528" maskUnits="userSpaceOnUse" x="0" y="0" width="284" height="282" fill="black">
<rect fill="white" width="284" height="282"/>
<path fill-rule="evenodd" clip-rule="evenodd" d="M274.095 157H10C17.9025 222.91 74.0086 274 142.047 274C210.086 274 266.192 222.91 274.095 157ZM274.095 125H10C17.9025 59.0903 74.0086 8 142.047 8C210.086 8 266.192 59.0903 274.095 125Z"/>
</mask>
<path fill-rule="evenodd" clip-rule="evenodd" d="M274.095 157H10C17.9025 222.91 74.0086 274 142.047 274C210.086 274 266.192 222.91 274.095 157ZM274.095 125H10C17.9025 59.0903 74.0086 8 142.047 8C210.086 8 266.192 59.0903 274.095 125Z" fill="white"/>
<path d="M274.095 157L282.038 157.952L283.111 149H274.095V157ZM10 157V149H0.983511L2.05689 157.952L10 157ZM10 125L2.05689 124.048L0.983511 133H10V125ZM274.095 125V133H283.111L282.038 124.048L274.095 125ZM274.095 149H10V165H274.095V149ZM142.047 266C78.107 266 25.3693 217.985 17.9431 156.048L2.05689 157.952C10.4357 227.835 69.9102 282 142.047 282V266ZM266.152 156.048C258.726 217.985 205.988 266 142.047 266V282C214.185 282 273.659 227.835 282.038 157.952L266.152 156.048ZM10 133H274.095V117H10V133ZM17.9431 125.952C25.3693 64.0154 78.107 16 142.047 16V0C69.9102 0 10.4357 54.1651 2.05689 124.048L17.9431 125.952ZM142.047 16C205.988 16 258.726 64.0155 266.152 125.952L282.038 124.048C273.659 54.1651 214.185 0 142.047 0V16Z" fill="#A80000" mask="url(#path-1-outside-1_320_14528)"/>
</svg>
